<svg width="1024" height="1024" viewBox="0 0 1024 1024" fill="none" xmlns="http://www.w3.org/2000/svg">
<path d="M454.119 884C387.971 884 326.16 867.802 268.686 835.405C212.297 803.009 166.752 756.649 132.051 696.324C97.3505 636 80 563.946 80 480.162C80 399.73 94.6394 329.351 123.918 269.027C154.282 208.703 196.573 161.784 250.794 128.27C306.098 94.7568 371.704 78 447.613 78C493.158 78 534.365 86.3784 571.235 103.135C609.189 118.775 640.637 138.324 665.578 161.784C691.604 184.126 708.954 205.91 717.629 227.135L766.427 161.784C766.427 161.784 824.582 83.35 888.423 98.1081C1039.43 133.015 835.89 295.678 826.612 481.838C818.409 646.411 1021.98 836.669 888.423 867.243C825.172 881.723 789.2 816.973 789.2 816.973L719.256 731.513C708.412 756.09 689.977 780.108 663.951 803.568C639.01 827.027 608.647 846.577 572.861 862.216C537.076 876.739 497.495 884 454.119 884ZM382.549 662.811C422.671 662.811 458.999 653.315 491.531 634.324C525.148 614.216 551.716 586.288 571.235 550.54C591.838 514.793 602.14 472.342 602.14 423.189V411.459C602.14 361.189 591.838 317.622 571.235 280.757C551.716 242.775 525.148 213.73 491.531 193.622C458.999 172.396 422.671 161.784 382.549 161.784C309.894 161.784 255.131 185.802 218.261 233.838C182.476 281.874 164.583 341.081 164.583 411.459C164.583 482.955 182.476 542.721 218.261 590.757C255.131 638.793 309.894 662.811 382.549 662.811Z" fill="white"/>
<path d="M400.489 308.809C400.489 351.3 367.946 385.746 327.801 385.746C287.656 385.746 255.113 351.3 255.113 308.809C255.113 266.319 287.656 231.873 327.801 231.873C367.946 231.873 400.489 266.319 400.489 308.809Z" fill="white"/>
</svg>
