<svg width="128" height="128" viewBox="0 0 128 128" fill="none" xmlns="http://www.w3.org/2000/svg">
<g clip-path="url(#clip0_20_2)">
<rect width="128" height="128" fill="white"/>
<rect x="0.5" y="0.5" width="127" height="127" stroke="black"/>
<path d="M53.3333 106.667L46.6666 93.3333L32 96M53.3333 21.3333L46.6666 34.6667L32 32M74.6666 106.667L81.3333 93.3333L96 96M74.6666 21.3333L81.3333 34.6667L96 32M90.6666 112L74.6666 80M74.6666 80H53.3333M74.6666 80L82.6666 64M53.3333 80L37.3333 112M53.3333 80L45.3333 64M90.6666 16L74.6666 48M74.6666 48L82.6666 64M74.6666 48H53.3333M82.6666 64H117.333M10.6666 64H45.3333M45.3333 64L53.3333 48M53.3333 48L37.3333 16M106.667 53.3333L98.6666 64L106.667 74.6667M21.3333 53.3333L29.3333 64L21.3333 74.6667" stroke="black" stroke-width="12" stroke-linecap="round" stroke-linejoin="round"/>
</g>
<defs>
<clipPath id="clip0_20_2">
<rect width="128" height="128" fill="white"/>
</clipPath>
</defs>
</svg>
