<svg width="256" height="256" viewBox="0 0 256 256" fill="none" xmlns="http://www.w3.org/2000/svg">
<path d="M122.933 24.48C123.401 23.5356 124.123 22.7406 125.018 22.1848C125.914 21.629 126.946 21.3345 128 21.3345C129.054 21.3345 130.087 21.629 130.982 22.1848C131.877 22.7406 132.599 23.5356 133.067 24.48L157.707 74.3893C159.33 77.6743 161.726 80.5164 164.689 82.6715C167.653 84.8267 171.095 86.2305 174.72 86.7627L229.824 94.8267C230.868 94.9779 231.849 95.4184 232.656 96.0981C233.463 96.7779 234.063 97.6699 234.39 98.6731C234.716 99.6764 234.755 100.751 234.502 101.775C234.25 102.8 233.715 103.733 232.96 104.469L193.109 143.275C190.481 145.836 188.515 148.997 187.38 152.487C186.244 155.976 185.974 159.689 186.592 163.307L196 218.133C196.184 219.177 196.072 220.251 195.675 221.234C195.278 222.217 194.613 223.068 193.755 223.691C192.898 224.313 191.883 224.683 190.825 224.756C189.768 224.83 188.712 224.605 187.776 224.107L138.517 198.208C135.272 196.504 131.661 195.613 127.995 195.613C124.329 195.613 120.718 196.504 117.472 198.208L68.2241 224.107C67.2889 224.602 66.2336 224.824 65.1782 224.749C64.1228 224.674 63.1096 224.305 62.2539 223.682C61.3982 223.06 60.7343 222.21 60.3377 221.229C59.9412 220.248 59.8279 219.175 60.0107 218.133L69.4081 163.317C70.0288 159.698 69.7599 155.983 68.6245 152.491C67.4891 148.999 65.5212 145.836 62.8907 143.275L23.0401 104.48C22.2784 103.744 21.7387 102.81 21.4823 101.782C21.226 100.755 21.2634 99.6759 21.5902 98.6687C21.9171 97.6615 22.5203 96.7663 23.331 96.0852C24.1418 95.404 25.1276 94.9643 26.1761 94.816L81.2694 86.7627C84.8988 86.2347 88.3456 84.8326 91.313 82.6772C94.2804 80.5218 96.6796 77.6776 98.3041 74.3893L122.933 24.48Z" fill="black" stroke="black" stroke-width="2" stroke-linecap="round" stroke-linejoin="round"/>
</svg>